<?xml version="1.0" standalone="no"?>
<!DOCTYPE svg PUBLIC "-//W3C//DTD SVG 20010904//EN"
 "http://www.w3.org/TR/2001/REC-SVG-20010904/DTD/svg10.dtd">
<svg version="1.0" xmlns="http://www.w3.org/2000/svg"
 width="1280.000000pt" height="932.000000pt" viewBox="0 0 1280.000000 932.000000"
 preserveAspectRatio="xMidYMid meet">
<g transform="translate(0.000000,932.000000) scale(0.100000,-0.100000)"
fill="#000000" stroke="none">
<path d="M6683 9313 c-13 -2 -23 -8 -23 -12 0 -5 38 -23 85 -41 82 -32 88 -33
168 -24 134 15 262 9 432 -19 88 -15 284 -44 435 -66 151 -22 426 -63 610 -91
184 -28 397 -59 472 -70 75 -11 190 -28 255 -39 65 -11 165 -27 223 -35 103
-15 415 -62 875 -131 127 -19 698 -105 1270 -190 572 -85 1052 -157 1068 -160
15 -2 27 -1 27 4 0 9 -5 10 -810 132 -841 126 -1034 156 -1840 279 -3061 468
-2850 436 -3038 451 -70 5 -140 11 -157 13 -16 2 -40 2 -52 -1z"/>
<path d="M6560 9263 c0 -10 -7 -101 -15 -203 -7 -102 -19 -259 -25 -350 -6
-91 -26 -372 -45 -625 -19 -253 -44 -581 -55 -730 -11 -148 -32 -416 -45 -595
-14 -179 -32 -428 -40 -555 -9 -126 -24 -345 -35 -485 -64 -840 -138 -1822
-146 -1935 -3 -49 -12 -139 -19 -200 -8 -60 -19 -180 -25 -265 -6 -85 -19
-263 -30 -395 -11 -132 -41 -523 -66 -870 -42 -554 -46 -642 -37 -726 13 -113
35 -170 88 -221 37 -36 126 -88 172 -102 l22 -7 -21 48 c-25 57 -28 168 -10
373 16 166 57 692 78 975 8 116 26 356 40 535 13 179 36 478 49 665 14 187 38
511 55 720 16 209 34 450 40 535 6 85 29 373 50 640 22 267 46 586 55 710 8
124 27 367 40 540 14 173 36 470 50 660 14 190 41 539 60 775 56 699 69 886
70 953 l0 64 -60 24 c-66 27 -173 64 -187 64 -4 0 -8 -8 -8 -17z"/>
<path d="M6922 9200 c-29 -4 -55 -10 -57 -12 -4 -4 -30 -295 -40 -458 -4 -52
-27 -347 -51 -655 -25 -308 -53 -686 -64 -840 -11 -154 -29 -390 -40 -525 -11
-135 -27 -344 -35 -465 -9 -121 -38 -503 -65 -850 -59 -753 -91 -1173 -130
-1710 -16 -220 -38 -515 -49 -655 -11 -140 -28 -356 -36 -480 -14 -200 -35
-475 -91 -1173 -23 -291 -10 -342 101 -399 58 -30 177 -20 385 32 237 59 404
94 655 135 233 38 411 81 930 225 176 49 435 118 575 155 140 36 476 127 745
200 270 74 544 147 610 164 155 38 788 209 820 221 14 5 25 12 25 16 0 4 -30
122 -66 263 -72 283 -156 557 -276 906 -44 127 -153 448 -243 715 -90 267
-211 622 -269 790 -105 302 -106 306 -106 397 0 108 -5 103 127 134 102 24
129 23 392 -21 408 -69 517 -123 599 -293 16 -35 92 -214 167 -398 76 -184
210 -509 300 -724 89 -214 186 -450 215 -522 29 -73 56 -133 60 -133 4 0 13
55 19 122 7 68 27 249 46 403 19 154 52 451 75 660 22 209 51 466 65 570 13
105 38 318 55 475 41 380 58 533 76 668 8 61 30 258 49 436 19 177 48 440 65
582 16 142 41 356 55 474 71 617 85 746 85 751 0 11 -29 16 -355 63 -171 25
-445 65 -610 90 -165 25 -361 55 -435 66 -74 11 -225 33 -335 50 -210 31 -774
116 -1005 150 -74 11 -283 43 -465 71 -325 49 -690 104 -1425 214 -206 30
-477 71 -602 90 -226 35 -335 41 -446 25z"/>
<path d="M3085 7866 c-88 -45 -153 -71 -203 -81 -88 -18 -145 -46 -281 -138
-131 -89 -252 -204 -342 -323 -102 -136 -107 -151 -114 -340 -3 -87 -2 -213 2
-279 l8 -120 46 -6 c83 -12 137 -51 205 -146 26 -37 65 -108 85 -157 21 -50
42 -92 48 -94 16 -5 14 10 -16 117 -26 91 -28 107 -27 296 0 230 2 239 85 362
l53 77 5 101 c5 76 11 108 25 130 33 50 139 156 182 181 59 35 181 47 404 41
156 -4 201 -9 285 -31 55 -14 120 -30 144 -36 58 -14 117 -56 184 -132 l55
-62 7 57 c4 32 6 97 3 145 -9 184 -101 293 -344 409 -134 63 -199 83 -289 89
l-80 6 -130 -66z"/>
<path d="M2995 7449 c-109 -14 -133 -26 -210 -103 -100 -100 -103 -105 -110
-221 -7 -98 -8 -102 -56 -175 -73 -114 -79 -135 -91 -315 l-11 -161 33 -124
c46 -176 45 -171 17 -198 -41 -38 -56 -26 -96 73 -81 200 -178 315 -267 315
-57 0 -59 -6 -56 -152 2 -123 5 -138 32 -196 20 -43 56 -90 113 -150 165 -171
167 -180 178 -532 11 -392 34 -470 205 -709 97 -135 196 -247 287 -323 l58
-48 97 0 c138 0 253 17 330 47 67 27 190 121 281 216 l44 46 1 218 c1 177 -2
230 -16 283 -10 36 -18 73 -18 83 0 10 25 44 55 76 70 73 146 199 173 287 26
83 73 423 74 537 1 69 -5 100 -36 197 -40 122 -48 208 -27 280 19 62 12 147
-24 292 -51 200 -85 260 -197 345 -47 36 -69 44 -193 72 -221 49 -396 62 -570
40z"/>
<path d="M2365 5362 c-33 -57 -77 -132 -97 -167 -38 -63 -38 -65 -38 -173 l0
-110 126 -338 c69 -187 133 -358 141 -381 8 -24 19 -43 23 -43 5 0 27 15 51
33 35 27 57 61 134 214 l92 182 -71 94 c-130 170 -197 276 -226 356 -37 102
-60 213 -61 303 -1 40 -4 87 -8 103 -7 29 -9 26 -66 -73z"/>
<path d="M10270 5293 c-91 -21 -93 -24 -88 -108 4 -56 30 -143 132 -440 70
-203 255 -748 410 -1210 222 -663 295 -893 345 -1090 34 -137 87 -324 116
-415 30 -91 83 -262 120 -380 37 -118 93 -296 125 -395 163 -503 191 -612 193
-745 0 -104 -19 -153 -98 -251 -108 -131 -199 -169 -410 -169 -112 0 -615 29
-965 55 -302 22 -543 36 -548 30 -3 -3 1 -5 9 -5 22 0 530 -48 679 -65 74 -8
236 -24 360 -35 124 -11 304 -30 400 -41 351 -42 374 -39 613 72 84 40 301
138 483 220 466 208 485 218 538 285 24 31 61 90 82 130 l38 74 -66 197 c-61
183 -321 945 -601 1766 -64 185 -118 341 -122 346 -3 5 -79 189 -169 408 -588
1433 -624 1515 -670 1571 -74 86 -222 132 -618 192 -158 23 -199 24 -288 3z"/>
<path d="M3808 4944 c2 -157 -1 -313 -6 -348 -7 -42 -35 -118 -85 -227 -220
-482 -255 -569 -261 -654 l-7 -80 23 30 c26 33 229 275 291 345 45 50 117 195
117 233 0 13 -7 30 -15 37 -20 17 -20 111 1 307 14 124 15 187 7 340 -8 172
-11 193 -36 246 -15 31 -28 57 -29 57 -2 0 -2 -128 0 -286z"/>
<path d="M2154 5076 c-11 -8 -66 -33 -122 -55 -167 -67 -322 -140 -412 -193
-47 -29 -142 -77 -211 -108 -168 -76 -367 -185 -405 -221 -17 -17 -57 -78 -89
-137 -32 -59 -116 -214 -187 -344 -71 -131 -138 -260 -149 -288 -10 -27 -24
-93 -30 -147 -13 -121 -32 -171 -120 -319 -40 -65 -80 -137 -90 -160 -22 -48
-129 -498 -158 -664 -11 -63 -28 -173 -36 -245 -52 -434 -106 -745 -137 -782
-7 -9 7 -31 54 -83 61 -67 86 -86 74 -55 -3 8 -8 55 -12 104 -6 85 -5 92 23
153 35 74 39 78 248 269 228 208 273 247 335 287 111 72 114 72 413 83 l272
10 74 -30 c41 -17 75 -31 77 -31 4 0 42 85 61 135 22 61 49 201 74 389 26 197
25 211 -45 391 -49 126 -54 150 -32 181 19 25 31 11 28 -30 -2 -21 13 -74 42
-147 63 -156 67 -188 50 -344 -29 -266 -67 -443 -114 -536 -16 -30 -18 -40 -8
-44 83 -28 423 -88 978 -172 280 -42 324 -46 540 -50 157 -3 244 -1 263 6 33
13 33 -7 -3 286 -10 83 -21 200 -25 260 -8 140 11 779 30 1040 24 326 26 311
-51 487 -80 186 -101 218 -185 282 -36 28 -127 104 -201 169 -75 64 -138 117
-141 117 -9 0 -97 -165 -133 -248 -36 -83 -76 -130 -140 -164 -40 -21 -45 -21
-59 -7 -9 9 -79 183 -156 388 l-139 373 0 88 c0 86 -5 120 -19 120 -4 0 -16
-6 -27 -14z"/>
<path d="M3916 5044 c-3 -9 -6 -111 -6 -227 -1 -117 -5 -243 -10 -282 -6 -38
-13 -102 -16 -140 -6 -66 -5 -72 21 -103 l27 -32 -42 -105 c-36 -89 -53 -117
-122 -197 -113 -131 -219 -257 -250 -298 -32 -43 -74 -236 -89 -414 -16 -194
-23 -790 -10 -906 27 -253 48 -421 53 -425 9 -9 163 31 331 84 276 88 330 94
560 61 155 -22 206 -34 257 -60 77 -40 367 -224 396 -251 17 -16 50 -66 75
-112 43 -81 44 -82 47 -47 2 19 -1 130 -7 245 -10 200 -9 224 17 490 24 232
27 301 20 400 -12 192 -27 637 -21 651 9 24 22 15 27 -18 3 -18 10 -166 16
-328 15 -436 7 -396 103 -476 44 -37 126 -112 182 -165 l101 -97 62 5 c34 3
103 0 152 -6 78 -11 96 -11 139 4 27 9 54 21 59 28 5 7 15 84 21 172 7 88 23
295 36 460 34 432 47 616 43 620 -2 2 -47 29 -100 60 -54 31 -100 60 -103 65
-3 4 0 33 6 64 10 56 9 59 -26 124 -59 108 -177 261 -261 342 -79 75 -527 452
-574 483 -14 9 -68 28 -120 43 -76 21 -126 27 -255 33 -189 7 -194 9 -356 130
-133 99 -155 110 -248 127 -100 18 -128 17 -135 -2z"/>
<path d="M3686 4600 c-174 -159 -284 -200 -566 -213 l-55 -2 65 -50 c151 -118
170 -142 250 -327 31 -73 61 -132 66 -132 5 1 51 95 102 210 51 115 117 261
147 324 58 122 79 189 73 234 -3 27 -4 27 -82 -44z"/>
<path d="M5940 2259 c-16 -7 -81 -8 -176 -3 l-151 7 -20 -29 c-42 -60 -122
-222 -142 -286 -25 -84 -42 -236 -43 -392 -1 -95 4 -146 25 -237 29 -134 42
-164 92 -208 30 -26 43 -31 89 -31 69 0 87 18 63 60 -11 18 -17 50 -17 89 0
122 50 661 66 709 26 76 92 212 103 212 19 0 12 -27 -28 -123 -50 -117 -57
-156 -81 -477 -11 -146 -22 -286 -24 -311 -6 -59 9 -80 74 -108 71 -31 155
-26 181 9 17 23 17 29 3 90 -19 78 -15 380 9 660 9 96 18 221 22 278 8 110 7
112 -45 91z"/>
<path d="M963 2130 c-153 -11 -201 -43 -575 -386 -86 -79 -172 -165 -190 -191
-30 -44 -33 -56 -36 -135 -3 -74 0 -99 23 -168 l27 -81 68 -34 c41 -21 109
-43 171 -56 104 -21 105 -21 749 -9 1445 26 1412 24 1705 89 l140 30 340 -4
340 -3 145 -51 c80 -28 152 -51 161 -51 27 0 -265 289 -378 374 -93 70 -124
106 -92 106 31 0 238 -171 342 -283 168 -180 222 -207 292 -146 45 40 45 70
-1 134 -20 28 -77 111 -126 185 -50 74 -118 163 -151 197 -89 91 -71 99 79 37
108 -45 121 -54 178 -115 132 -143 294 -394 361 -558 17 -41 61 -66 117 -66
42 0 53 4 74 28 13 15 24 37 24 48 0 23 -63 221 -92 288 -10 25 -60 116 -111
201 -96 162 -177 258 -280 328 -45 32 -62 62 -33 62 32 0 286 -212 345 -287
56 -72 91 -133 228 -399 101 -199 129 -244 145 -244 41 0 100 24 119 48 33 42
18 89 -128 421 -53 120 -92 220 -88 229 11 28 30 -6 125 -222 126 -288 132
-303 139 -371 6 -59 6 -60 39 -63 74 -7 89 51 51 201 -67 265 -170 481 -255
538 -122 83 -342 214 -383 230 -63 24 -301 59 -398 59 -99 0 -177 -17 -366
-79 -251 -82 -364 -104 -564 -109 -237 -6 -378 9 -1013 109 -244 38 -318 52
-530 98 -52 11 -104 21 -115 21 -11 0 -56 14 -98 30 -77 30 -81 30 -255 28
-97 0 -218 -4 -269 -8z"/>
<path d="M3980 1646 c0 -2 50 -78 112 -168 61 -89 127 -185 145 -212 40 -58
41 -91 7 -141 l-25 -38 43 7 c82 13 158 38 158 53 0 25 -30 75 -126 209 -101
142 -186 241 -218 254 -12 5 -38 15 -58 24 -21 9 -38 14 -38 12z"/>
<path d="M5959 1099 c-36 -28 -123 -36 -173 -15 -48 20 -66 20 -66 2 0 -46
-104 -60 -192 -25 -49 19 -60 20 -145 10 -50 -6 -96 -11 -101 -11 -5 0 -15
-13 -22 -29 -16 -39 -71 -65 -120 -57 -26 4 -51 0 -81 -13 -24 -10 -63 -22
-87 -26 -50 -8 -72 6 -103 68 -12 23 -27 37 -38 37 -24 0 -51 -26 -51 -49 0
-25 -51 -70 -92 -81 -44 -13 -114 7 -164 45 -32 24 -42 27 -82 21 -126 -18
-654 -85 -995 -127 -162 -19 -190 -25 -199 -42 -5 -10 -6 -23 -1 -27 4 -4 89
-38 188 -76 99 -37 186 -73 193 -80 8 -6 17 -44 20 -85 l7 -74 71 -3 c40 -2
204 11 365 27 162 16 393 39 514 51 121 11 335 32 475 46 495 47 666 64 740
69 41 4 109 11 150 16 41 5 149 16 240 24 91 9 246 26 345 40 99 13 360 47
580 76 220 29 410 56 423 60 19 7 22 16 22 64 0 67 -23 95 -96 115 -25 7 -56
22 -70 33 -21 16 -34 18 -77 13 -84 -11 -367 -71 -572 -122 -165 -40 -204 -46
-300 -47 -78 -1 -127 4 -170 17 -81 24 -205 89 -259 137 -24 21 -46 39 -48 38
-1 0 -15 -9 -29 -20z"/>
<path d="M9732 844 c-40 -18 -1039 -479 -1135 -524 -37 -18 -66 -34 -63 -37 2
-3 119 -11 258 -19 592 -32 1232 -71 1458 -88 384 -30 767 -48 905 -44 198 6
241 28 366 185 58 72 73 130 63 238 -11 117 1 109 -186 129 -89 9 -210 24
-268 32 -58 7 -211 25 -340 39 -129 14 -327 37 -440 51 -481 59 -558 64 -618
38z"/>
</g>
</svg>
